<svg width="28" height="28" viewBox="0 0 28 28" fill="none" xmlns="http://www.w3.org/2000/svg">
<circle cx="14" cy="14" r="14" fill="#D9D9D9"/>
<path d="M15.7012 14.0238L11.1923 18.5328C11.0682 18.6567 10.9999 18.8223 10.9999 18.9988C10.9999 19.1755 11.0682 19.341 11.1923 19.4651L11.5874 19.86C11.7114 19.9842 11.8771 20.0526 12.0537 20.0526C12.2302 20.0526 12.3957 19.9842 12.5198 19.86L17.8883 14.4916C18.0129 14.3671 18.0811 14.2008 18.0806 14.0241C18.0811 13.8465 18.013 13.6804 17.8883 13.5559L12.5248 8.19265C12.4007 8.0684 12.2352 8 12.0586 8C11.882 8 11.7165 8.0684 11.5923 8.19265L11.1973 8.58754C10.9403 8.84457 10.9403 9.26298 11.1973 9.5199L15.7012 14.0238Z" fill="#340A32"/>
</svg>
