<svg width="28" height="28" viewBox="0 0 28 28" fill="none" xmlns="http://www.w3.org/2000/svg">
<circle cx="14" cy="14" r="14" fill="#D9D9D9"/>
<path d="M12.3794 14.0289L16.8882 9.51981C17.0124 9.39595 17.0807 9.23035 17.0807 9.05377C17.0807 8.8771 17.0124 8.71159 16.8882 8.58754L16.4931 8.19265C16.3692 8.0684 16.2035 8 16.0269 8C15.8503 8 15.6848 8.0684 15.5608 8.19265L10.1923 13.5611C10.0677 13.6855 9.99951 13.8518 10 14.0286C9.99951 14.2061 10.0676 14.3722 10.1923 14.4968L15.5558 19.86C15.6798 19.9842 15.8453 20.0526 16.022 20.0526C16.1986 20.0526 16.3641 19.9842 16.4882 19.86L16.8832 19.4651C17.1402 19.208 17.1402 18.7896 16.8832 18.5327L12.3794 14.0289Z" fill="#340A32"/>
</svg>
